<svg width="32" height="32" viewBox="0 0 32 32" fill="none" xmlns="http://www.w3.org/2000/svg">
<g clip-path="url(#clip0_89_9190)">
<path d="M15.9994 8C14.9445 8 13.9134 8.31279 13.0363 8.89883C12.1592 9.48486 11.4757 10.3178 11.072 11.2924C10.6683 12.2669 10.5627 13.3392 10.7685 14.3738C10.9743 15.4084 11.4822 16.3587 12.2281 17.1046C12.974 17.8504 13.9243 18.3584 14.9589 18.5642C15.9934 18.77 17.0658 18.6644 18.0403 18.2607C19.0149 17.857 19.8478 17.1734 20.4339 16.2964C21.0199 15.4193 21.3327 14.3882 21.3327 13.3333C21.3327 11.9188 20.7708 10.5623 19.7706 9.5621C18.7704 8.5619 17.4138 8 15.9994 8ZM15.9994 16C15.4719 16 14.9564 15.8436 14.5178 15.5506C14.0793 15.2576 13.7375 14.8411 13.5357 14.3538C13.3338 13.8666 13.281 13.3304 13.3839 12.8131C13.4868 12.2958 13.7408 11.8207 14.1137 11.4477C14.4867 11.0748 14.9618 10.8208 15.4791 10.7179C15.9964 10.615 16.5326 10.6678 17.0198 10.8697C17.5071 11.0715 17.9236 11.4133 18.2166 11.8518C18.5096 12.2903 18.666 12.8059 18.666 13.3333C18.666 14.0406 18.3851 14.7189 17.885 15.219C17.3849 15.719 16.7066 16 15.9994 16Z" fill="#374957"/>
<path d="M16.0004 32.0005C14.8777 32.0062 13.7699 31.7429 12.7698 31.2325C11.7698 30.7222 10.9065 29.9797 10.2524 29.0671C5.17108 22.0578 2.59375 16.7885 2.59375 13.4045C2.59375 9.8488 4.00623 6.43876 6.52047 3.92453C9.03471 1.41029 12.4447 -0.00219727 16.0004 -0.00219727C19.5561 -0.00219727 22.9661 1.41029 25.4804 3.92453C27.9946 6.43876 29.4071 9.8488 29.4071 13.4045C29.4071 16.7885 26.8298 22.0578 21.7484 29.0671C21.0943 29.9797 20.2311 30.7222 19.231 31.2325C18.2309 31.7429 17.1232 32.0062 16.0004 32.0005V32.0005ZM16.0004 2.90847C13.217 2.91165 10.5484 4.01877 8.58025 5.98697C6.61205 7.95516 5.50493 10.6237 5.50175 13.4071C5.50175 16.0871 8.02575 21.0431 12.6071 27.3618C12.996 27.8975 13.5062 28.3335 14.096 28.6342C14.6858 28.9348 15.3384 29.0915 16.0004 29.0915C16.6624 29.0915 17.315 28.9348 17.9048 28.6342C18.4946 28.3335 19.0048 27.8975 19.3937 27.3618C23.9751 21.0431 26.4991 16.0871 26.4991 13.4071C26.4959 10.6237 25.3888 7.95516 23.4206 5.98697C21.4524 4.01877 18.7839 2.91165 16.0004 2.90847V2.90847Z" fill="#374957"/>
</g>
<defs>
<clipPath id="clip0_89_9190">
<rect width="32" height="32" fill="white"/>
</clipPath>
</defs>
</svg>
