<svg width="32" height="32" viewBox="0 0 32 32" fill="none" xmlns="http://www.w3.org/2000/svg">
<g clip-path="url(#clip0_89_9374)">
<path d="M17.3334 2.73467V1.33333C17.3334 0.979711 17.1929 0.640573 16.9429 0.390524C16.6928 0.140476 16.3537 0 16.0001 0C15.6464 0 15.3073 0.140476 15.0573 0.390524C14.8072 0.640573 14.6667 0.979711 14.6667 1.33333V2.73467C11.9824 2.97532 9.41664 3.95227 7.25205 5.55789C5.08747 7.16351 3.40811 9.33548 2.39898 11.8345C1.38986 14.3335 1.09015 17.0626 1.53286 19.7211C1.97558 22.3795 3.14354 24.8642 4.90807 26.9013C4.21123 27.2461 3.62891 27.7849 3.23125 28.453C2.83359 29.121 2.63755 29.8898 2.66674 30.6667C2.66674 31.0203 2.80721 31.3594 3.05726 31.6095C3.30731 31.8595 3.64645 32 4.00007 32C4.35369 32 4.69283 31.8595 4.94288 31.6095C5.19293 31.3594 5.3334 31.0203 5.3334 30.6667C5.32232 30.2557 5.46987 29.8562 5.74543 29.5511C6.02099 29.246 6.40343 29.0587 6.81341 29.028C6.90512 29.0106 6.99457 28.9828 7.08007 28.9453C9.63412 30.9263 12.7745 32.0014 16.0067 32.0014C19.239 32.0014 22.3794 30.9263 24.9334 28.9453C25.0115 28.9813 25.0927 29.0099 25.1761 29.0307C25.5875 29.0587 25.9722 29.2445 26.2499 29.5493C26.5276 29.8542 26.677 30.2544 26.6667 30.6667C26.6667 31.0203 26.8072 31.3594 27.0573 31.6095C27.3073 31.8595 27.6464 32 28.0001 32C28.3537 32 28.6928 31.8595 28.9429 31.6095C29.1929 31.3594 29.3334 31.0203 29.3334 30.6667C29.3626 29.8898 29.1665 29.121 28.7689 28.453C28.3712 27.7849 27.7889 27.2461 27.0921 26.9013C28.8566 24.8642 30.0246 22.3795 30.4673 19.7211C30.91 17.0626 30.6103 14.3335 29.6012 11.8345C28.592 9.33548 26.9127 7.16351 24.7481 5.55789C22.5835 3.95227 20.0177 2.97532 17.3334 2.73467V2.73467ZM4.00007 17.3333C4.00007 14.96 4.70386 12.6399 6.02244 10.6665C7.34101 8.6931 9.21516 7.15503 11.4079 6.24678C13.6006 5.33853 16.0134 5.10089 18.3412 5.56391C20.6689 6.02693 22.8071 7.16982 24.4854 8.84805C26.1636 10.5263 27.3065 12.6645 27.7695 14.9923C28.2325 17.32 27.9949 19.7328 27.0866 21.9255C26.1784 24.1183 24.6403 25.9924 22.6669 27.311C20.6935 28.6295 18.3734 29.3333 16.0001 29.3333C12.8187 29.3295 9.76867 28.0639 7.51908 25.8143C5.26948 23.5647 4.00395 20.5147 4.00007 17.3333V17.3333Z" fill="#374957"/>
<path d="M25.6204 -0.000110371C25.2668 -0.000110371 24.9277 0.140365 24.6776 0.390414C24.4276 0.640462 24.2871 0.979601 24.2871 1.33322C24.2871 1.68685 24.4276 2.02598 24.6776 2.27603C24.9277 2.52608 25.2668 2.66656 25.6204 2.66656C26.0854 2.63121 26.5527 2.69039 26.9941 2.84053C27.4356 2.99067 27.842 3.22865 28.189 3.54013C28.536 3.85161 28.8163 4.23014 29.0131 4.65288C29.2098 5.07563 29.3189 5.53384 29.3338 5.99989C29.3338 6.35351 29.4743 6.69265 29.7243 6.9427C29.9743 7.19275 30.3135 7.33322 30.6671 7.33322C31.0207 7.33322 31.3599 7.19275 31.6099 6.9427C31.86 6.69265 32.0004 6.35351 32.0004 5.99989C31.9834 5.18455 31.8039 4.3808 31.4725 3.63566C31.141 2.89053 30.6644 2.21896 30.0703 1.66027C29.4762 1.10157 28.7767 0.666965 28.0126 0.381868C27.2485 0.0967718 26.4353 -0.0330869 25.6204 -0.000110371V-0.000110371Z" fill="#374957"/>
<path d="M2.66667 5.99989C2.68153 5.53384 2.79062 5.07563 2.98736 4.65288C3.1841 4.23014 3.46441 3.85161 3.8114 3.54013C4.15839 3.22865 4.56487 2.99067 5.00632 2.84053C5.44777 2.69039 5.91506 2.63121 6.38 2.66656C6.73362 2.66656 7.07276 2.52608 7.32281 2.27603C7.57286 2.02598 7.71333 1.68685 7.71333 1.33322C7.71333 0.979601 7.57286 0.640462 7.32281 0.390414C7.07276 0.140365 6.73362 -0.000110371 6.38 -0.000110371C5.56515 -0.0330869 4.7519 0.0967718 3.98784 0.381868C3.22378 0.666965 2.52425 1.10157 1.93017 1.66027C1.33609 2.21896 0.859395 2.89053 0.527974 3.63566C0.196554 4.3808 0.0170617 5.18455 0 5.99989C0 6.35351 0.140476 6.69265 0.390524 6.9427C0.640573 7.19275 0.979711 7.33322 1.33333 7.33322C1.68696 7.33322 2.02609 7.19275 2.27614 6.9427C2.52619 6.69265 2.66667 6.35351 2.66667 5.99989Z" fill="#374957"/>
<path d="M17.3327 15.448V9.33333C17.3327 8.97971 17.1922 8.64057 16.9422 8.39052C16.6921 8.14048 16.353 8 15.9993 8C15.6457 8 15.3066 8.14048 15.0565 8.39052C14.8065 8.64057 14.666 8.97971 14.666 9.33333V16C14.6661 16.3536 14.8066 16.6927 15.0567 16.9427L19.0567 20.9427C19.3082 21.1855 19.645 21.3199 19.9945 21.3169C20.3441 21.3139 20.6786 21.1736 20.9258 20.9264C21.173 20.6792 21.3132 20.3448 21.3162 19.9952C21.3193 19.6456 21.1849 19.3088 20.942 19.0573L17.3327 15.448Z" fill="#374957"/>
</g>
<defs>
<clipPath id="clip0_89_9374">
<rect width="32" height="32" fill="white"/>
</clipPath>
</defs>
</svg>
