<svg width="32" height="32" viewBox="0 0 32 32" fill="none" xmlns="http://www.w3.org/2000/svg">
<path d="M24.9471 10.9466C24.8231 10.8217 24.6757 10.7225 24.5132 10.6548C24.3507 10.5871 24.1764 10.5522 24.0004 10.5522C23.8244 10.5522 23.6501 10.5871 23.4876 10.6548C23.3252 10.7225 23.1777 10.8217 23.0537 10.9466L16.9471 17.0533C16.8231 17.1783 16.6757 17.2775 16.5132 17.3452C16.3507 17.4128 16.1764 17.4477 16.0004 17.4477C15.8244 17.4477 15.6501 17.4128 15.4876 17.3452C15.3252 17.2775 15.1777 17.1783 15.0537 17.0533L8.94707 10.9466C8.82312 10.8217 8.67565 10.7225 8.51317 10.6548C8.3507 10.5871 8.17642 10.5522 8.00041 10.5522C7.82439 10.5522 7.65012 10.5871 7.48764 10.6548C7.32516 10.7225 7.17769 10.8217 7.05374 10.9466C6.8054 11.1965 6.66602 11.5344 6.66602 11.8866C6.66602 12.2389 6.8054 12.5768 7.05374 12.8266L13.1737 18.9466C13.9237 19.6957 14.9404 20.1164 16.0004 20.1164C17.0604 20.1164 18.0771 19.6957 18.8271 18.9466L24.9471 12.8266C25.1954 12.5768 25.3348 12.2389 25.3348 11.8866C25.3348 11.5344 25.1954 11.1965 24.9471 10.9466V10.9466Z" fill="#0E506C"/>
</svg>
