<svg width="32" height="32" viewBox="0 0 32 32" fill="none" xmlns="http://www.w3.org/2000/svg">
<path d="M10.9471 24.9465C10.8222 24.8225 10.723 24.675 10.6553 24.5126C10.5876 24.3501 10.5527 24.1758 10.5527 23.9998C10.5527 23.8238 10.5876 23.6495 10.6553 23.487C10.723 23.3245 10.8222 23.1771 10.9471 23.0531L17.0538 16.9465C17.1788 16.8225 17.2779 16.675 17.3456 16.5126C17.4133 16.3501 17.4482 16.1758 17.4482 15.9998C17.4482 15.8238 17.4133 15.6495 17.3456 15.487C17.2779 15.3245 17.1788 15.1771 17.0538 15.0531L10.9471 8.94646C10.8222 8.82251 10.723 8.67504 10.6553 8.51256C10.5876 8.35009 10.5527 8.17581 10.5527 7.9998C10.5527 7.82378 10.5876 7.64951 10.6553 7.48703C10.723 7.32455 10.8222 7.17708 10.9471 7.05313C11.1969 6.80479 11.5349 6.66541 11.8871 6.66541C12.2394 6.66541 12.5773 6.80479 12.8271 7.05313L18.9471 13.1731C19.6962 13.9231 20.1169 14.9398 20.1169 15.9998C20.1169 17.0598 19.6962 18.0765 18.9471 18.8265L12.8271 24.9465C12.5773 25.1948 12.2394 25.3342 11.8871 25.3342C11.5349 25.3342 11.1969 25.1948 10.9471 24.9465V24.9465Z" fill="#020D12"/>
</svg>
