<svg width="32" height="32" viewBox="0 0 32 32" fill="none" xmlns="http://www.w3.org/2000/svg">
<path d="M24.9471 21.0534C24.8231 21.1783 24.6757 21.2775 24.5132 21.3452C24.3507 21.4129 24.1764 21.4478 24.0004 21.4478C23.8244 21.4478 23.6501 21.4129 23.4876 21.3452C23.3252 21.2775 23.1777 21.1783 23.0537 21.0534L16.9471 14.9467C16.8231 14.8217 16.6757 14.7225 16.5132 14.6548C16.3507 14.5872 16.1764 14.5523 16.0004 14.5523C15.8244 14.5523 15.6501 14.5872 15.4876 14.6548C15.3252 14.7225 15.1777 14.8217 15.0537 14.9467L8.94707 21.0534C8.82312 21.1783 8.67565 21.2775 8.51317 21.3452C8.3507 21.4129 8.17642 21.4478 8.00041 21.4478C7.82439 21.4478 7.65012 21.4129 7.48764 21.3452C7.32516 21.2775 7.17769 21.1783 7.05374 21.0534C6.8054 20.8035 6.66602 20.4656 6.66602 20.1134C6.66602 19.7611 6.8054 19.4232 7.05374 19.1734L13.1737 13.0534C13.9237 12.3043 14.9404 11.8836 16.0004 11.8836C17.0604 11.8836 18.0771 12.3043 18.8271 13.0534L24.9471 19.1734C25.1954 19.4232 25.3348 19.7611 25.3348 20.1134C25.3348 20.4656 25.1954 20.8035 24.9471 21.0534V21.0534Z" fill="#0E506C"/>
</svg>
