<svg width="32" height="32" viewBox="0 0 32 32" fill="none" xmlns="http://www.w3.org/2000/svg">
<path d="M21.0529 24.9465C21.1778 24.8225 21.277 24.675 21.3447 24.5126C21.4124 24.3501 21.4473 24.1758 21.4473 23.9998C21.4473 23.8238 21.4124 23.6495 21.3447 23.487C21.277 23.3245 21.1778 23.1771 21.0529 23.0531L14.9462 16.9465C14.8212 16.8225 14.7221 16.675 14.6544 16.5126C14.5867 16.3501 14.5518 16.1758 14.5518 15.9998C14.5518 15.8238 14.5867 15.6495 14.6544 15.487C14.7221 15.3245 14.8212 15.1771 14.9462 15.0531L21.0529 8.94646C21.1778 8.82251 21.277 8.67504 21.3447 8.51256C21.4124 8.35009 21.4473 8.17581 21.4473 7.9998C21.4473 7.82378 21.4124 7.64951 21.3447 7.48703C21.277 7.32455 21.1778 7.17708 21.0529 7.05313C20.8031 6.80479 20.4651 6.66541 20.1129 6.66541C19.7606 6.66541 19.4227 6.80479 19.1729 7.05313L13.0529 13.1731C12.3038 13.9231 11.8831 14.9398 11.8831 15.9998C11.8831 17.0598 12.3038 18.0765 13.0529 18.8265L19.1729 24.9465C19.4227 25.1948 19.7606 25.3342 20.1129 25.3342C20.4651 25.3342 20.8031 25.1948 21.0529 24.9465V24.9465Z" fill="#EDF8FD"/>
</svg>
