<svg width="32" height="32" viewBox="0 0 32 32" fill="none" xmlns="http://www.w3.org/2000/svg">
<path d="M29.3333 13.3298V8.55643C29.3333 8.24455 29.3155 7.93294 29.28 7.62309C29.1019 5.99205 28.421 4.45676 27.3317 3.22982C26.2423 2.00288 24.7985 1.14502 23.2 0.775023C18.4556 -0.258341 13.5444 -0.258341 8.8 0.775023C7.20163 1.1452 5.75787 2.00312 4.66857 3.23002C3.57928 4.45692 2.89833 5.99211 2.72 7.62309C2.68454 7.93294 2.66673 8.24455 2.66667 8.55643V13.3298C1.95942 13.3298 1.28115 13.6108 0.781049 14.1109C0.280952 14.611 0 15.2892 0 15.9965L0 17.3298C0 18.0371 0.280952 18.7154 0.781049 19.2155C1.28115 19.7156 1.95942 19.9965 2.66667 19.9965V22.6632C2.66604 23.6983 2.90674 24.7193 3.36964 25.6451C3.83254 26.5709 4.5049 27.3761 5.33333 27.9966V28.6633C5.3325 29.4899 5.63885 30.2874 6.19292 30.9009C6.74698 31.5143 7.50922 31.9 8.33167 31.9831C9.15412 32.0662 9.9781 31.8407 10.6436 31.3504C11.3092 30.8602 11.7688 30.1401 11.9333 29.33H20.0667C20.2312 30.1401 20.6908 30.8602 21.3564 31.3504C22.0219 31.8407 22.8459 32.0662 23.6683 31.9831C24.4908 31.9 25.253 31.5143 25.8071 30.9009C26.3611 30.2874 26.6675 29.4899 26.6667 28.6633V27.9966C27.4951 27.3761 28.1675 26.5709 28.6304 25.6451C29.0933 24.7193 29.334 23.6983 29.3333 22.6632V19.9965C30.0406 19.9965 30.7189 19.7156 31.219 19.2155C31.719 18.7154 32 18.0371 32 17.3298V15.9965C32 15.2892 31.719 14.611 31.219 14.1109C30.7189 13.6108 30.0406 13.3298 29.3333 13.3298ZM5.33333 17.3298V9.32977H26.6667V17.3298H5.33333ZM9.40267 3.37238C13.7518 2.42628 18.2535 2.42628 22.6027 3.37238C23.4476 3.56929 24.2304 3.9731 24.8807 4.54749C25.531 5.12188 26.0283 5.84886 26.328 6.66308H21.3333C21.3333 6.30945 21.1929 5.97031 20.9428 5.72026C20.6928 5.47021 20.3536 5.32973 20 5.32973H12C11.6464 5.32973 11.3072 5.47021 11.0572 5.72026C10.8071 5.97031 10.6667 6.30945 10.6667 6.66308H5.672C5.9722 5.84822 6.47034 5.12083 7.12159 4.54639C7.77283 3.97195 8.55672 3.5685 9.40267 3.37238ZM22.6667 26.6633H9.33333C8.27247 26.6633 7.25505 26.2418 6.50491 25.4917C5.75476 24.7415 5.33333 23.7241 5.33333 22.6632V19.9965H8V21.3299C8 21.6835 8.14048 22.0226 8.39052 22.2727C8.64057 22.5227 8.97971 22.6632 9.33333 22.6632C9.68696 22.6632 10.0261 22.5227 10.2761 22.2727C10.5262 22.0226 10.6667 21.6835 10.6667 21.3299V19.9965H21.3333V21.3299C21.3333 21.6835 21.4738 22.0226 21.7239 22.2727C21.9739 22.5227 22.313 22.6632 22.6667 22.6632C23.0203 22.6632 23.3594 22.5227 23.6095 22.2727C23.8595 22.0226 24 21.6835 24 21.3299V19.9965H26.6667V22.6632C26.6667 23.7241 26.2452 24.7415 25.4951 25.4917C24.7449 26.2418 23.7275 26.6633 22.6667 26.6633Z" fill="#1CA3DB"/>
</svg>
