<svg width="31" height="32" viewBox="0 0 31 32" fill="none" xmlns="http://www.w3.org/2000/svg">
<path d="M21.9583 14.6667H16.7917V9.33333C16.7917 8.97971 16.6556 8.64057 16.4133 8.39052C16.1711 8.14048 15.8426 8 15.5 8C15.1574 8 14.8289 8.14048 14.5867 8.39052C14.3444 8.64057 14.2083 8.97971 14.2083 9.33333V14.6667H9.04167C8.6991 14.6667 8.37056 14.8071 8.12832 15.0572C7.88609 15.3072 7.75 15.6464 7.75 16C7.75 16.3536 7.88609 16.6928 8.12832 16.9428C8.37056 17.1929 8.6991 17.3333 9.04167 17.3333H14.2083V22.6667C14.2083 23.0203 14.3444 23.3594 14.5867 23.6095C14.8289 23.8595 15.1574 24 15.5 24C15.8426 24 16.1711 23.8595 16.4133 23.6095C16.6556 23.3594 16.7917 23.0203 16.7917 22.6667V17.3333H21.9583C22.3009 17.3333 22.6294 17.1929 22.8717 16.9428C23.1139 16.6928 23.25 16.3536 23.25 16C23.25 15.6464 23.1139 15.3072 22.8717 15.0572C22.6294 14.8071 22.3009 14.6667 21.9583 14.6667Z" fill="#F6F8F9"/>
</svg>
