<svg width="32" height="32" viewBox="0 0 32 32" fill="none" xmlns="http://www.w3.org/2000/svg">
<g clip-path="url(#clip0_89_9312)">
<path d="M23.9727 12.5014L15.9993 10.9067V4.14273C16.0119 3.17844 15.6849 2.24047 15.0755 1.49307C14.466 0.745672 13.6131 0.236499 12.666 0.0547263C12.0923 -0.0422426 11.5044 -0.0128971 10.9432 0.140716C10.3821 0.294329 9.86117 0.568512 9.41686 0.944142C8.97256 1.31977 8.61554 1.78781 8.37072 2.3156C8.12589 2.8434 7.99916 3.41825 7.99934 4.00006V12.8814L4.28067 17.7334C3.19 19.0099 2.61878 20.6496 2.68028 22.3275C2.74177 24.0053 3.43148 25.5988 4.61267 26.7921L7.81268 30.0254C9.06833 31.2853 10.7726 31.9955 12.5513 32.0001H22.666C24.4335 31.9979 26.1279 31.2949 27.3777 30.0451C28.6275 28.7953 29.3306 27.1009 29.3327 25.3334V19.0387C29.3294 17.4983 28.7941 16.0063 27.8175 14.8151C26.8408 13.6238 25.4826 12.8065 23.9727 12.5014V12.5014ZM26.666 25.3334C26.666 26.3943 26.2446 27.4117 25.4944 28.1618C24.7443 28.912 23.7269 29.3334 22.666 29.3334H12.5513C11.4829 29.3303 10.4594 28.903 9.70601 28.1454L6.50601 24.9081C5.79096 24.1805 5.3776 23.2095 5.34891 22.1898C5.32022 21.1701 5.67833 20.1773 6.35134 19.4107L7.99934 17.2601V22.6667C7.99934 23.0203 8.13982 23.3595 8.38987 23.6095C8.63992 23.8596 8.97905 24.0001 9.33268 24.0001C9.6863 24.0001 10.0254 23.8596 10.2755 23.6095C10.5255 23.3595 10.666 23.0203 10.666 22.6667V4.00006C10.6659 3.80502 10.7086 3.61234 10.791 3.43559C10.8735 3.25884 10.9937 3.10233 11.1432 2.97709C11.2927 2.85186 11.4679 2.76095 11.6564 2.71078C11.8448 2.66061 12.042 2.6524 12.234 2.68673C12.5568 2.76573 12.8425 2.95377 13.0426 3.21906C13.2428 3.48435 13.3453 3.81062 13.3327 4.14273V12.0001C13.3326 12.3074 13.4388 12.6054 13.6331 12.8435C13.8275 13.0816 14.0982 13.2453 14.3993 13.3067L23.4447 15.1161C24.3514 15.2986 25.1673 15.7887 25.7542 16.5035C26.3412 17.2182 26.6633 18.1138 26.666 19.0387V25.3334Z" fill="#0E506C"/>
</g>
<defs>
<clipPath id="clip0_89_9312">
<rect width="32" height="32" fill="white"/>
</clipPath>
</defs>
</svg>
