<svg width="32" height="32" viewBox="0 0 32 32" fill="none" xmlns="http://www.w3.org/2000/svg">
<path d="M18.666 32C18.3775 32 18.0968 31.9064 17.866 31.7333L12.5327 27.7333C12.3671 27.6091 12.2327 27.4481 12.1401 27.263C12.0475 27.0778 11.9993 26.8737 11.9993 26.6667V19.1733L2.64466 8.64933C1.98028 7.89984 1.5465 6.97442 1.39543 5.98431C1.24436 4.9942 1.38245 3.98153 1.79309 3.06802C2.20373 2.1545 2.86944 1.37901 3.71023 0.834754C4.55102 0.290497 5.53109 0.000632559 6.53266 0L25.466 0C26.4675 0.00117473 27.4473 0.291519 28.2877 0.836142C29.1282 1.38077 29.7935 2.1565 30.2037 3.07011C30.6139 3.98373 30.7515 4.99637 30.6001 5.98633C30.4486 6.97629 30.0146 7.90146 29.35 8.65067L19.9993 19.1733V30.6667C19.9993 31.0203 19.8588 31.3594 19.6088 31.6095C19.3587 31.8595 19.0196 32 18.666 32V32ZM14.666 26L17.3327 28V18.6667C17.3329 18.3402 17.453 18.0252 17.67 17.7813L27.3607 6.87867C27.6838 6.51344 27.8946 6.06272 27.9679 5.5806C28.0412 5.09849 27.9737 4.60547 27.7737 4.16074C27.5736 3.71601 27.2495 3.33848 26.8401 3.07345C26.4308 2.80843 25.9536 2.66718 25.466 2.66667H6.53266C6.04526 2.66741 5.56842 2.80873 5.15933 3.07369C4.75024 3.33865 4.42627 3.71599 4.22627 4.16047C4.02627 4.60494 3.95873 5.09768 4.03176 5.57957C4.10479 6.06147 4.31528 6.51207 4.63799 6.87733L14.33 17.7813C14.5465 18.0254 14.6661 18.3404 14.666 18.6667V26Z" fill="#FBF5F5"/>
</svg>
