<svg width="32" height="32" viewBox="0 0 32 32" fill="none" xmlns="http://www.w3.org/2000/svg">
<g clip-path="url(#clip0_89_9170)">
<path d="M30.826 1.16214C30.4092 0.746395 29.9055 0.428264 29.351 0.230672C28.7965 0.0330809 28.205 -0.03905 27.6193 0.0194772C23.8953 0.379477 11.3713 1.93014 6.53399 6.76214C4.22169 9.08075 2.85052 12.1739 2.68529 15.4443C2.52006 18.7147 3.57249 21.9303 5.63933 24.4701L0.386001 29.7235C0.143124 29.9749 0.00873126 30.3117 0.0117692 30.6613C0.014807 31.0109 0.155032 31.3454 0.402243 31.5926C0.649453 31.8398 0.983869 31.98 1.33346 31.983C1.68306 31.9861 2.01986 31.8517 2.27133 31.6088L7.52466 26.3555C10.064 28.4251 13.2805 29.4797 16.5523 29.3154C19.824 29.1512 22.9187 27.7797 25.238 25.4661C30.1393 20.5635 31.638 8.07814 31.9833 4.36881C32.0398 3.78197 31.9652 3.18992 31.7651 2.63539C31.5649 2.08085 31.2442 1.57766 30.826 1.16214V1.16214ZM23.3593 23.5755C21.5413 25.3868 19.1263 26.4746 16.565 26.6358C14.0038 26.797 11.4714 26.0206 9.44066 24.4515L22.2833 11.6088C22.5262 11.3573 22.6606 11.0205 22.6575 10.6709C22.6545 10.3213 22.5143 9.98693 22.2671 9.73972C22.0199 9.49251 21.6854 9.35228 21.3358 9.34925C20.9863 9.34621 20.6494 9.4806 20.398 9.72348L7.54866 22.5661C5.97929 20.5355 5.2027 18.0031 5.3639 15.4417C5.52511 12.8804 6.61308 10.4653 8.42466 8.64748C11.77 5.30348 20.994 3.33281 27.8766 2.67281C28.0716 2.65384 28.2683 2.67805 28.4528 2.74372C28.6373 2.80938 28.8051 2.91489 28.9442 3.05274C29.0834 3.1906 29.1904 3.35741 29.2578 3.54131C29.3251 3.72522 29.3511 3.92171 29.334 4.11681C28.6673 11.2995 26.746 20.1821 23.3526 23.5755H23.3593Z" fill="#21D333"/>
</g>
<defs>
<clipPath id="clip0_89_9170">
<rect width="32" height="32" fill="white"/>
</clipPath>
</defs>
</svg>
