<svg width="32" height="32" viewBox="0 0 32 32" fill="none" xmlns="http://www.w3.org/2000/svg">
<g clip-path="url(#clip0_89_9310)">
<path d="M10.0073 31.9995C7.59362 31.998 5.26196 31.1235 3.44256 29.5375C1.62316 27.9514 0.438803 25.7608 0.108038 23.3699C-0.222726 20.979 0.322423 18.5492 1.64289 16.5287C2.96336 14.5083 4.97003 13.0336 7.29262 12.3769C8.98079 11.8934 10.7677 11.8713 12.4673 12.3129L23.0113 1.77154C23.571 1.20791 24.2371 0.76105 24.9709 0.456865C25.7047 0.152681 26.4916 -0.00276802 27.286 -0.000463018V-0.000463018C28.536 0.000596225 29.7346 0.497659 30.6186 1.3816C31.5025 2.26554 31.9996 3.46412 32.0006 4.7142C32.0027 5.50859 31.8473 6.29551 31.5433 7.02946C31.2394 7.76341 30.793 8.42983 30.23 8.9902L29.334 9.8862C28.8326 10.3841 28.1552 10.6644 27.4486 10.6662H25.334V11.9995C25.334 12.7068 25.053 13.3851 24.5529 13.8852C24.0528 14.3853 23.3745 14.6662 22.6673 14.6662H21.334V16.7809C21.3349 17.1312 21.2663 17.4782 21.1322 17.8018C20.9981 18.1255 20.8011 18.4193 20.5526 18.6662L19.686 19.5329C20.1299 21.2317 20.1083 23.0187 19.6233 24.7062C19.0776 26.6289 17.9704 28.3449 16.4435 29.6345C14.9166 30.9241 13.0395 31.7286 11.0526 31.9449C10.7053 31.981 10.3564 31.9992 10.0073 31.9995V31.9995ZM10.0073 14.6662C8.64215 14.6649 7.30375 15.0446 6.14274 15.7627C4.98172 16.4808 4.0442 17.5087 3.43569 18.7307C2.82718 19.9527 2.57186 21.3203 2.69845 22.6796C2.82505 24.0388 3.32854 25.3358 4.15225 26.4244C4.97595 27.513 6.08718 28.3501 7.36083 28.8414C8.63448 29.3328 10.02 29.4588 11.3614 29.2054C12.7028 28.952 13.9469 28.3292 14.9535 27.4071C15.9602 26.4851 16.6895 25.3003 17.0593 23.9862C17.4753 22.5416 17.4287 21.003 16.926 19.5862C16.8439 19.3496 16.8302 19.0947 16.8863 18.8506C16.9424 18.6065 17.0661 18.3832 17.2433 18.2062L18.6673 16.7809V14.6662C18.6673 13.959 18.9482 13.2807 19.4483 12.7806C19.9484 12.2805 20.6267 11.9995 21.334 11.9995H22.6673V10.6662C22.6673 9.95896 22.9482 9.28068 23.4483 8.78059C23.9484 8.28049 24.6267 7.99954 25.334 7.99954H27.4486L28.3446 7.10354C28.6592 6.79041 28.9087 6.41802 29.0785 6.00791C29.2483 5.59779 29.3351 5.15808 29.334 4.7142C29.3336 4.17138 29.1179 3.65087 28.7342 3.26691C28.3505 2.88295 27.8301 2.66691 27.2873 2.6662C26.8431 2.66511 26.4031 2.75211 25.9928 2.92215C25.5824 3.0922 25.2098 3.34192 24.8966 3.65687L13.7886 14.7635C13.6113 14.9407 13.3877 15.0643 13.1434 15.1202C12.8991 15.1761 12.644 15.162 12.4073 15.0795C11.634 14.8073 10.8204 14.6675 10.0006 14.6662H10.0073ZM6.66729 23.9995C6.66729 24.2632 6.74549 24.521 6.892 24.7403C7.0385 24.9596 7.24674 25.1305 7.49038 25.2314C7.73401 25.3323 8.0021 25.3587 8.26074 25.3073C8.51938 25.2558 8.75696 25.1288 8.94343 24.9423C9.1299 24.7559 9.25689 24.5183 9.30834 24.2597C9.35978 24.001 9.33338 23.7329 9.23246 23.4893C9.13154 23.2457 8.96065 23.0374 8.74138 22.8909C8.52212 22.7444 8.26433 22.6662 8.00062 22.6662C7.647 22.6662 7.30786 22.8067 7.05781 23.0567C6.80776 23.3068 6.66729 23.6459 6.66729 23.9995Z" fill="#0E506C"/>
</g>
<defs>
<clipPath id="clip0_89_9310">
<rect width="32" height="32" fill="white"/>
</clipPath>
</defs>
</svg>
