<svg width="32" height="32" viewBox="0 0 32 32" fill="none" xmlns="http://www.w3.org/2000/svg">
<g clip-path="url(#clip0_89_9168)">
<path d="M23.9932 3.04818C22.3658 1.59423 20.3726 0.611621 18.2283 0.206085C16.084 -0.199451 13.8697 -0.0125568 11.8237 0.746655C9.77768 1.50587 7.97744 2.80865 6.61671 4.51481C5.25598 6.22096 4.38628 8.26589 4.10121 10.4295C3.84518 12.3266 4.04994 14.2575 4.69817 16.0588C5.34639 17.86 6.41899 19.4786 7.82521 20.7775C8.69481 21.5401 9.39651 22.475 9.88585 23.523C10.3752 24.571 10.6415 25.7092 10.6679 26.8655V27.0802C10.6693 28.3846 11.1881 29.6352 12.1105 30.5576C13.0328 31.48 14.2834 31.9988 15.5879 32.0002H16.4145C17.719 31.9988 18.9696 31.48 19.8919 30.5576C20.8143 29.6352 21.3331 28.3846 21.3345 27.0802V26.3482C21.3545 25.3261 21.595 24.3205 22.0396 23.4C22.4842 22.4795 23.1224 21.6659 23.9105 21.0148C25.1887 19.8954 26.2143 18.5172 26.9196 16.9715C27.6248 15.4258 27.9936 13.7478 28.0014 12.0488C28.0092 10.3498 27.6559 8.66854 26.9649 7.11639C26.2739 5.56423 25.261 4.17663 23.9932 3.04551V3.04818ZM16.4145 29.3335H15.5879C14.9905 29.3328 14.4177 29.0952 13.9953 28.6727C13.5729 28.2503 13.3352 27.6776 13.3345 27.0802C13.3345 27.0802 13.3252 26.7335 13.3239 26.6668H18.6679V27.0802C18.6672 27.6776 18.4295 28.2503 18.0071 28.6727C17.5847 29.0952 17.0119 29.3328 16.4145 29.3335V29.3335ZM22.1479 19.0122C20.6298 20.3289 19.5334 22.0638 18.9959 24.0002H17.3345V14.4215C18.1118 14.1467 18.7851 13.6385 19.2624 12.9664C19.7398 12.2944 19.9978 11.4912 20.0012 10.6668C20.0012 10.3132 19.8607 9.97408 19.6107 9.72403C19.3606 9.47399 19.0215 9.33351 18.6679 9.33351C18.3143 9.33351 17.9751 9.47399 17.7251 9.72403C17.475 9.97408 17.3345 10.3132 17.3345 10.6668C17.3345 11.0205 17.1941 11.3596 16.944 11.6097C16.694 11.8597 16.3548 12.0002 16.0012 12.0002C15.6476 12.0002 15.3084 11.8597 15.0584 11.6097C14.8083 11.3596 14.6679 11.0205 14.6679 10.6668C14.6679 10.3132 14.5274 9.97408 14.2773 9.72403C14.0273 9.47399 13.6882 9.33351 13.3345 9.33351C12.9809 9.33351 12.6418 9.47399 12.3917 9.72403C12.1417 9.97408 12.0012 10.3132 12.0012 10.6668C12.0046 11.4912 12.2627 12.2944 12.74 12.9664C13.2173 13.6385 13.8907 14.1467 14.6679 14.4215V24.0002H12.9052C12.3039 22.0125 11.176 20.2244 9.64121 18.8255C8.33848 17.6116 7.41017 16.0504 6.96583 14.3262C6.52149 12.6019 6.57967 10.7865 7.13349 9.09417C7.68731 7.40187 8.71366 5.90331 10.0914 4.77533C11.4692 3.64735 13.1409 2.93702 14.9092 2.72818C15.2758 2.68726 15.6444 2.66678 16.0132 2.66684C18.3033 2.66004 20.5141 3.50501 22.2159 5.03751C23.2021 5.91697 23.9902 6.99603 24.5278 8.20314C25.0654 9.41026 25.3403 10.7179 25.3343 12.0393C25.3282 13.3607 25.0413 14.6657 24.4927 15.8679C23.9441 17.07 23.1461 18.1418 22.1519 19.0122H22.1479Z" fill="#E4DD1B"/>
</g>
<defs>
<clipPath id="clip0_89_9168">
<rect width="32" height="32" fill="white"/>
</clipPath>
</defs>
</svg>
