<svg width="32" height="32" viewBox="0 0 32 32" fill="none" xmlns="http://www.w3.org/2000/svg">
<g clip-path="url(#clip0_89_9314)">
<path d="M5.33243 8.00024C4.80676 8.00162 4.28604 7.89874 3.80039 7.69757C3.31474 7.4964 2.87381 7.20092 2.50309 6.82824L0.444425 4.99624C0.18027 4.76072 0.0204899 4.42992 0.000235968 4.0766C-0.020018 3.72329 0.100913 3.37639 0.336425 3.11224C0.571937 2.84808 0.902739 2.6883 1.25606 2.66805C1.60938 2.64779 1.95627 2.76872 2.22043 3.00424L4.33376 4.88957C4.45474 5.02543 4.60224 5.1351 4.76719 5.21182C4.93214 5.28854 5.11105 5.3307 5.2929 5.3357C5.47475 5.34069 5.6557 5.30842 5.82462 5.24087C5.99353 5.17332 6.14683 5.07192 6.27509 4.9429L11.0804 0.368236C11.3388 0.138196 11.6765 0.0175945 12.0222 0.0319038C12.3678 0.0462132 12.6944 0.194313 12.9329 0.444922C13.1714 0.695532 13.3031 1.02903 13.3003 1.37497C13.2975 1.72091 13.1603 2.05222 12.9178 2.2989L8.13243 6.8509C7.76412 7.21706 7.32726 7.50703 6.84681 7.70424C6.36637 7.90146 5.85177 8.00204 5.33243 8.00024V8.00024ZM31.9991 5.33357C31.9991 4.97995 31.8586 4.64081 31.6086 4.39076C31.3585 4.14071 31.0194 4.00024 30.6658 4.00024H17.3324C16.9788 4.00024 16.6397 4.14071 16.3896 4.39076C16.1396 4.64081 15.9991 4.97995 15.9991 5.33357C15.9991 5.68719 16.1396 6.02633 16.3896 6.27638C16.6397 6.52643 16.9788 6.6669 17.3324 6.6669H30.6658C31.0194 6.6669 31.3585 6.52643 31.6086 6.27638C31.8586 6.02633 31.9991 5.68719 31.9991 5.33357ZM8.13243 17.5176L12.9178 12.9656C13.0513 12.8467 13.1596 12.7021 13.2362 12.5405C13.3127 12.3789 13.356 12.2035 13.3634 12.0249C13.3708 11.8462 13.3421 11.6679 13.2792 11.5005C13.2163 11.3331 13.1203 11.1801 12.997 11.0505C12.8738 10.921 12.7257 10.8176 12.5616 10.7464C12.3976 10.6753 12.2209 10.6379 12.042 10.6364C11.8632 10.635 11.6859 10.6695 11.5207 10.7379C11.3555 10.8064 11.2058 10.9074 11.0804 11.0349L6.28043 15.6096C6.0266 15.8523 5.68895 15.9877 5.33776 15.9877C4.98657 15.9877 4.64891 15.8523 4.39509 15.6096L2.27509 13.4962C2.02362 13.2534 1.68682 13.119 1.33722 13.122C0.987628 13.125 0.653211 13.2653 0.406 13.5125C0.15879 13.7597 0.0185643 14.0941 0.0155264 14.4437C0.0124885 14.7933 0.146881 15.1301 0.389759 15.3816L2.50309 17.4949C3.24932 18.2413 4.26031 18.6625 5.31576 18.6668C6.3712 18.671 7.38555 18.2579 8.13776 17.5176H8.13243ZM31.9991 16.0002C31.9991 15.6466 31.8586 15.3075 31.6086 15.0574C31.3585 14.8074 31.0194 14.6669 30.6658 14.6669H17.3324C16.9788 14.6669 16.6397 14.8074 16.3896 15.0574C16.1396 15.3075 15.9991 15.6466 15.9991 16.0002C15.9991 16.3539 16.1396 16.693 16.3896 16.943C16.6397 17.1931 16.9788 17.3336 17.3324 17.3336H30.6658C31.0194 17.3336 31.3585 17.1931 31.6086 16.943C31.8586 16.693 31.9991 16.3539 31.9991 16.0002ZM8.13243 28.1842L12.9124 23.6322C13.046 23.5133 13.1543 23.3688 13.2308 23.2072C13.3074 23.0456 13.3506 22.8702 13.358 22.6915C13.3654 22.5129 13.3368 22.3345 13.2739 22.1671C13.2109 21.9998 13.115 21.8467 12.9917 21.7172C12.8684 21.5877 12.7204 21.4842 12.5563 21.4131C12.3922 21.342 12.2155 21.3045 12.0367 21.3031C11.8579 21.3016 11.6806 21.3362 11.5154 21.4046C11.3502 21.4731 11.2005 21.5741 11.0751 21.7016L6.27509 26.2762C6.14683 26.4053 5.99353 26.5067 5.82462 26.5742C5.6557 26.6418 5.47475 26.674 5.2929 26.669C5.11105 26.664 4.93214 26.6219 4.76719 26.5452C4.60224 26.4684 4.45474 26.3588 4.33376 26.2229L2.22043 24.3376C1.95627 24.1021 1.60938 23.9811 1.25606 24.0014C0.902739 24.0216 0.571937 24.1814 0.336425 24.4456C0.100913 24.7097 -0.020018 25.0566 0.000235968 25.4099C0.0204899 25.7633 0.18027 26.0941 0.444425 26.3296L2.50309 28.1616C3.24932 28.908 4.26031 29.3292 5.31576 29.3334C6.3712 29.3377 7.38555 28.9246 8.13776 28.1842H8.13243ZM31.9991 26.6669C31.9991 26.3133 31.8586 25.9741 31.6086 25.7241C31.3585 25.474 31.0194 25.3336 30.6658 25.3336H17.3324C16.9788 25.3336 16.6397 25.474 16.3896 25.7241C16.1396 25.9741 15.9991 26.3133 15.9991 26.6669C15.9991 27.0205 16.1396 27.3597 16.3896 27.6097C16.6397 27.8598 16.9788 28.0002 17.3324 28.0002H30.6658C31.0194 28.0002 31.3585 27.8598 31.6086 27.6097C31.8586 27.3597 31.9991 27.0205 31.9991 26.6669Z" fill="#0E506C"/>
</g>
<defs>
<clipPath id="clip0_89_9314">
<rect width="32" height="32" fill="white"/>
</clipPath>
</defs>
</svg>
