<svg width="32" height="32" viewBox="0 0 32 32" fill="none" xmlns="http://www.w3.org/2000/svg">
<g clip-path="url(#clip0_89_9274)">
<path d="M31.0281 12.5585C29.8244 10.5874 28.3061 8.82681 26.5334 7.34647L30.2667 3.61313C30.5096 3.36166 30.644 3.02486 30.641 2.67526C30.6379 2.32567 30.4977 1.99125 30.2505 1.74404C30.0033 1.49683 29.6689 1.3566 29.3193 1.35357C28.9697 1.35053 28.6329 1.48492 28.3814 1.7278L24.3214 5.79313C21.8046 4.29823 18.9273 3.51908 16.0001 3.5398C7.7454 3.5398 3.0414 9.19046 0.972068 12.5585C0.332772 13.5925 -0.00585937 14.7841 -0.00585938 15.9998C-0.00585938 17.2155 0.332772 18.4071 0.972068 19.4411C2.17574 21.4122 3.69405 23.1728 5.46673 24.6531L1.7334 28.3865C1.60605 28.5095 1.50448 28.6566 1.4346 28.8193C1.36472 28.9819 1.32794 29.1569 1.3264 29.3339C1.32486 29.511 1.3586 29.6865 1.42564 29.8504C1.49268 30.0143 1.59168 30.1631 1.71688 30.2883C1.84207 30.4135 1.99093 30.5125 2.1548 30.5796C2.31866 30.6466 2.49423 30.6803 2.67127 30.6788C2.84831 30.6773 3.02327 30.6405 3.18594 30.5706C3.34861 30.5007 3.49574 30.3991 3.61874 30.2718L7.68807 26.2025C10.2018 27.6971 13.0756 28.4776 16.0001 28.4598C24.2547 28.4598 28.9587 22.8091 31.0281 19.4411C31.6674 18.4071 32.006 17.2155 32.006 15.9998C32.006 14.7841 31.6674 13.5925 31.0281 12.5585V12.5585ZM3.24407 18.0451C2.86425 17.4305 2.66307 16.7223 2.66307 15.9998C2.66307 15.2773 2.86425 14.5691 3.24407 13.9545C5.02274 11.0665 9.04274 6.20647 16.0001 6.20647C18.2138 6.19406 20.3964 6.72758 22.3547 7.7598L19.6707 10.4438C18.3906 9.59393 16.8559 9.21313 15.327 9.36599C13.7981 9.51886 12.3692 10.196 11.2827 11.2825C10.1963 12.369 9.51913 13.7979 9.36626 15.3268C9.2134 16.8557 9.5942 18.3904 10.4441 19.6705L7.36407 22.7505C5.73087 21.4301 4.33719 19.8384 3.24407 18.0451V18.0451ZM20.0001 15.9998C20.0001 17.0607 19.5786 18.0781 18.8285 18.8282C18.0784 19.5784 17.0609 19.9998 16.0001 19.9998C15.4061 19.9975 14.8203 19.8607 14.2867 19.5998L19.6001 14.2865C19.861 14.8201 19.9978 15.4058 20.0001 15.9998V15.9998ZM12.0001 15.9998C12.0001 14.9389 12.4215 13.9215 13.1716 13.1714C13.9218 12.4212 14.9392 11.9998 16.0001 11.9998C16.5941 12.0021 17.1798 12.1388 17.7134 12.3998L12.4001 17.7131C12.1391 17.1795 12.0024 16.5938 12.0001 15.9998ZM28.7561 18.0451C26.9774 20.9331 22.9574 25.7931 16.0001 25.7931C13.7864 25.8055 11.6038 25.272 9.6454 24.2398L12.3294 21.5558C13.6095 22.4057 15.1442 22.7865 16.6731 22.6336C18.202 22.4807 19.6309 21.8036 20.7174 20.7171C21.8039 19.6306 22.481 18.2017 22.6339 16.6728C22.7867 15.1439 22.4059 13.6092 21.5561 12.3291L24.6361 9.24913C26.2693 10.5695 27.663 12.1612 28.7561 13.9545C29.1359 14.5691 29.3371 15.2773 29.3371 15.9998C29.3371 16.7223 29.1359 17.4305 28.7561 18.0451V18.0451Z" fill="#1578A2"/>
</g>
<defs>
<clipPath id="clip0_89_9274">
<rect width="32" height="32" fill="white"/>
</clipPath>
</defs>
</svg>
