<svg width="32" height="32" viewBox="0 0 32 32" fill="none" xmlns="http://www.w3.org/2000/svg">
<g clip-path="url(#clip0_89_9171)">
<path d="M9.33333 0H5.33333C3.91885 0 2.56229 0.561903 1.5621 1.5621C0.561903 2.56229 0 3.91885 0 5.33333L0 9.33333C0 10.7478 0.561903 12.1044 1.5621 13.1046C2.56229 14.1048 3.91885 14.6667 5.33333 14.6667H9.33333C10.7478 14.6667 12.1044 14.1048 13.1046 13.1046C14.1048 12.1044 14.6667 10.7478 14.6667 9.33333V5.33333C14.6667 3.91885 14.1048 2.56229 13.1046 1.5621C12.1044 0.561903 10.7478 0 9.33333 0V0ZM12 9.33333C12 10.0406 11.719 10.7189 11.219 11.219C10.7189 11.719 10.0406 12 9.33333 12H5.33333C4.62609 12 3.94781 11.719 3.44772 11.219C2.94762 10.7189 2.66667 10.0406 2.66667 9.33333V5.33333C2.66667 4.62609 2.94762 3.94781 3.44772 3.44772C3.94781 2.94762 4.62609 2.66667 5.33333 2.66667H9.33333C10.0406 2.66667 10.7189 2.94762 11.219 3.44772C11.719 3.94781 12 4.62609 12 5.33333V9.33333Z" fill="#DE771D"/>
<path d="M26.6673 0H22.6673C21.2528 0 19.8963 0.561904 18.8961 1.5621C17.8959 2.56229 17.334 3.91885 17.334 5.33334V9.33334C17.334 10.7478 17.8959 12.1044 18.8961 13.1046C19.8963 14.1048 21.2528 14.6667 22.6673 14.6667H26.6673C28.0818 14.6667 29.4383 14.1048 30.4385 13.1046C31.4387 12.1044 32.0006 10.7478 32.0006 9.33334V5.33334C32.0006 3.91885 31.4387 2.56229 30.4385 1.5621C29.4383 0.561904 28.0818 0 26.6673 0V0ZM29.334 9.33334C29.334 10.0406 29.053 10.7189 28.5529 11.219C28.0528 11.7191 27.3745 12 26.6673 12H22.6673C21.9601 12 21.2818 11.7191 20.7817 11.219C20.2816 10.7189 20.0006 10.0406 20.0006 9.33334V5.33334C20.0006 4.62609 20.2816 3.94781 20.7817 3.44772C21.2818 2.94762 21.9601 2.66667 22.6673 2.66667H26.6673C27.3745 2.66667 28.0528 2.94762 28.5529 3.44772C29.053 3.94781 29.334 4.62609 29.334 5.33334V9.33334Z" fill="#DE771D"/>
<path d="M9.33333 17.3333H5.33333C3.91885 17.3333 2.56229 17.8952 1.5621 18.8954C0.561903 19.8955 0 21.2521 0 22.6666L0 26.6666C0 28.0811 0.561903 29.4376 1.5621 30.4378C2.56229 31.438 3.91885 31.9999 5.33333 31.9999H9.33333C10.7478 31.9999 12.1044 31.438 13.1046 30.4378C14.1048 29.4376 14.6667 28.0811 14.6667 26.6666V22.6666C14.6667 21.2521 14.1048 19.8955 13.1046 18.8954C12.1044 17.8952 10.7478 17.3333 9.33333 17.3333V17.3333ZM12 26.6666C12 27.3738 11.719 28.0521 11.219 28.5522C10.7189 29.0523 10.0406 29.3333 9.33333 29.3333H5.33333C4.62609 29.3333 3.94781 29.0523 3.44772 28.5522C2.94762 28.0521 2.66667 27.3738 2.66667 26.6666V22.6666C2.66667 21.9593 2.94762 21.2811 3.44772 20.781C3.94781 20.2809 4.62609 19.9999 5.33333 19.9999H9.33333C10.0406 19.9999 10.7189 20.2809 11.219 20.781C11.719 21.2811 12 21.9593 12 22.6666V26.6666Z" fill="#DE771D"/>
<path d="M26.6673 17.3333H22.6673C21.2528 17.3333 19.8963 17.8952 18.8961 18.8954C17.8959 19.8955 17.334 21.2521 17.334 22.6666V26.6666C17.334 28.0811 17.8959 29.4376 18.8961 30.4378C19.8963 31.438 21.2528 31.9999 22.6673 31.9999H26.6673C28.0818 31.9999 29.4383 31.438 30.4385 30.4378C31.4387 29.4376 32.0006 28.0811 32.0006 26.6666V22.6666C32.0006 21.2521 31.4387 19.8955 30.4385 18.8954C29.4383 17.8952 28.0818 17.3333 26.6673 17.3333V17.3333ZM29.334 26.6666C29.334 27.3738 29.053 28.0521 28.5529 28.5522C28.0528 29.0523 27.3745 29.3333 26.6673 29.3333H22.6673C21.9601 29.3333 21.2818 29.0523 20.7817 28.5522C20.2816 28.0521 20.0006 27.3738 20.0006 26.6666V22.6666C20.0006 21.9593 20.2816 21.2811 20.7817 20.781C21.2818 20.2809 21.9601 19.9999 22.6673 19.9999H26.6673C27.3745 19.9999 28.0528 20.2809 28.5529 20.781C29.053 21.2811 29.334 21.9593 29.334 22.6666V26.6666Z" fill="#DE771D"/>
</g>
<defs>
<clipPath id="clip0_89_9171">
<rect width="32" height="32" fill="white"/>
</clipPath>
</defs>
</svg>
