<svg width="32" height="32" viewBox="0 0 32 32" fill="none" xmlns="http://www.w3.org/2000/svg">
<g clip-path="url(#clip0_89_9311)">
<path d="M30.4707 1.5306C29.5642 0.625534 28.3356 0.117188 27.0547 0.117188C25.7737 0.117188 24.5451 0.625534 23.6387 1.5306L1.95335 23.2159C1.33236 23.8334 0.83997 24.568 0.504684 25.377C0.169399 26.186 -0.00213064 27.0535 1.9975e-05 27.9293V30.6666C1.9975e-05 31.0202 0.140496 31.3594 0.390544 31.6094C0.640593 31.8595 0.979731 31.9999 1.33335 31.9999H4.07069C4.94637 32.0024 5.81385 31.8312 6.62289 31.4961C7.43194 31.161 8.16649 30.6688 8.78402 30.0479L30.4707 8.36127C31.3754 7.45486 31.8834 6.22656 31.8834 4.94594C31.8834 3.66532 31.3754 2.43701 30.4707 1.5306V1.5306ZM6.89869 28.1626C6.14669 28.9096 5.13064 29.3302 4.07069 29.3333H2.66669V27.9293C2.66534 27.4038 2.76823 26.8833 2.9694 26.3979C3.17058 25.9124 3.46604 25.4717 3.83869 25.1013L20.296 8.64394L23.3627 11.7106L6.89869 28.1626ZM28.584 6.47594L25.2427 9.8186L22.176 6.7586L25.5187 3.41594C25.72 3.21502 25.959 3.05572 26.2219 2.94715C26.4849 2.83858 26.7666 2.78286 27.051 2.78317C27.3355 2.78348 27.6171 2.83981 27.8798 2.94895C28.1425 3.0581 28.3811 3.21791 28.582 3.41927C28.7829 3.62063 28.9422 3.85959 29.0508 4.12252C29.1594 4.38544 29.2151 4.66717 29.2148 4.95163C29.2145 5.23609 29.1581 5.5177 29.049 5.78038C28.9399 6.04307 28.78 6.28168 28.5787 6.4826L28.584 6.47594Z" fill="#0E506C"/>
</g>
<defs>
<clipPath id="clip0_89_9311">
<rect width="32" height="32" fill="white"/>
</clipPath>
</defs>
</svg>
