<svg width="32" height="32" viewBox="0 0 32 32" fill="none" xmlns="http://www.w3.org/2000/svg">
<g clip-path="url(#clip0_89_9316)">
<path d="M16 8C14.9391 8 13.9217 8.42143 13.1716 9.17157C12.4214 9.92172 12 10.9391 12 12V28C12 29.0609 12.4214 30.0783 13.1716 30.8284C13.9217 31.5786 14.9391 32 16 32C17.0609 32 18.0783 31.5786 18.8284 30.8284C19.5786 30.0783 20 29.0609 20 28V12C20 10.9391 19.5786 9.92172 18.8284 9.17157C18.0783 8.42143 17.0609 8 16 8Z" fill="#0E506C"/>
<path d="M28 0C26.9391 0 25.9217 0.421427 25.1716 1.17157C24.4214 1.92172 24 2.93913 24 4V28C24 29.0609 24.4214 30.0783 25.1716 30.8284C25.9217 31.5786 26.9391 32 28 32C29.0609 32 30.0783 31.5786 30.8284 30.8284C31.5786 30.0783 32 29.0609 32 28V4C32 2.93913 31.5786 1.92172 30.8284 1.17157C30.0783 0.421427 29.0609 0 28 0V0ZM29.3333 28C29.3333 28.3536 29.1929 28.6928 28.9428 28.9428C28.6928 29.1929 28.3536 29.3333 28 29.3333C27.6464 29.3333 27.3072 29.1929 27.0572 28.9428C26.8071 28.6928 26.6667 28.3536 26.6667 28V4C26.6667 3.64638 26.8071 3.30724 27.0572 3.05719C27.3072 2.80714 27.6464 2.66667 28 2.66667C28.3536 2.66667 28.6928 2.80714 28.9428 3.05719C29.1929 3.30724 29.3333 3.64638 29.3333 4V28Z" fill="#0E506C"/>
<path d="M4 16C2.93913 16 1.92172 16.4214 1.17157 17.1716C0.421427 17.9217 0 18.9391 0 20L0 28C0 29.0609 0.421427 30.0783 1.17157 30.8284C1.92172 31.5786 2.93913 32 4 32C5.06087 32 6.07828 31.5786 6.82843 30.8284C7.57857 30.0783 8 29.0609 8 28V20C8 18.9391 7.57857 17.9217 6.82843 17.1716C6.07828 16.4214 5.06087 16 4 16Z" fill="#0E506C"/>
</g>
<defs>
<clipPath id="clip0_89_9316">
<rect width="32" height="32" fill="white"/>
</clipPath>
</defs>
</svg>
