<svg width="32" height="32" viewBox="0 0 32 32" fill="none" xmlns="http://www.w3.org/2000/svg">
<g clip-path="url(#clip0_89_9169)">
<path d="M28.6137 5.51176C28.3442 3.96676 27.5377 2.56656 26.3366 1.55813C25.1354 0.549688 23.6168 -0.00221146 22.0484 -0.00023644H9.9351C8.36553 -0.00262284 6.84561 0.549746 5.6438 1.55931C4.44199 2.56887 3.63561 3.97066 3.3671 5.5171L0.101773 24.1838C-0.0659119 25.1419 -0.0219212 26.125 0.230659 27.0643C0.483239 28.0036 0.93829 28.8762 1.56388 29.621C2.18948 30.3658 2.97047 30.9646 3.85205 31.3756C4.73363 31.7865 5.69445 31.9995 6.6671 31.9998H25.3337C26.307 31.9999 27.2686 31.7869 28.1508 31.3757C29.0329 30.9646 29.8144 30.3652 30.4402 29.6198C31.0661 28.8744 31.5211 28.001 31.7734 27.0609C32.0256 26.1209 32.069 25.137 31.9004 24.1784L28.6137 5.51176ZM28.4004 27.9051C28.0246 28.3527 27.5553 28.7125 27.0255 28.9592C26.4956 29.206 25.9182 29.3336 25.3337 29.3331H6.6671C6.08333 29.3331 5.50664 29.2053 4.97751 28.9588C4.44837 28.7122 3.97962 28.3528 3.60415 27.9058C3.22869 27.4588 2.95561 26.935 2.8041 26.3713C2.65259 25.8075 2.62631 25.2174 2.7271 24.6424L5.99243 5.97576C6.15501 5.04834 6.63954 4.20799 7.36073 3.60265C8.08192 2.99731 8.99353 2.66578 9.9351 2.66643H22.0484C22.9889 2.66662 23.8993 2.99819 24.6196 3.60292C25.3399 4.20764 25.8241 5.04684 25.9871 5.9731L29.2711 24.6398C29.373 25.2146 29.3479 25.8048 29.1975 26.3689C29.0471 26.933 28.775 27.4573 28.4004 27.9051V27.9051ZM17.3338 6.66643V9.3331C17.3338 9.68672 17.1933 10.0259 16.9432 10.2759C16.6932 10.526 16.354 10.6664 16.0004 10.6664C15.6468 10.6664 15.3077 10.526 15.0576 10.2759C14.8076 10.0259 14.6671 9.68672 14.6671 9.3331V6.66643C14.6671 6.31281 14.8076 5.97367 15.0576 5.72362C15.3077 5.47357 15.6468 5.3331 16.0004 5.3331C16.354 5.3331 16.6932 5.47357 16.9432 5.72362C17.1933 5.97367 17.3338 6.31281 17.3338 6.66643ZM17.3338 14.6664V17.3331C17.3338 17.6867 17.1933 18.0259 16.9432 18.2759C16.6932 18.526 16.354 18.6664 16.0004 18.6664C15.6468 18.6664 15.3077 18.526 15.0576 18.2759C14.8076 18.0259 14.6671 17.6867 14.6671 17.3331V14.6664C14.6671 14.3128 14.8076 13.9737 15.0576 13.7236C15.3077 13.4736 15.6468 13.3331 16.0004 13.3331C16.354 13.3331 16.6932 13.4736 16.9432 13.7236C17.1933 13.9737 17.3338 14.3128 17.3338 14.6664V14.6664ZM17.3338 22.6664V25.3331C17.3338 25.6867 17.1933 26.0259 16.9432 26.2759C16.6932 26.526 16.354 26.6664 16.0004 26.6664C15.6468 26.6664 15.3077 26.526 15.0576 26.2759C14.8076 26.0259 14.6671 25.6867 14.6671 25.3331V22.6664C14.6671 22.3128 14.8076 21.9737 15.0576 21.7236C15.3077 21.4736 15.6468 21.3331 16.0004 21.3331C16.354 21.3331 16.6932 21.4736 16.9432 21.7236C17.1933 21.9737 17.3338 22.3128 17.3338 22.6664Z" fill="#576165"/>
</g>
<defs>
<clipPath id="clip0_89_9169">
<rect width="32" height="32" fill="white"/>
</clipPath>
</defs>
</svg>
