<svg width="32" height="32" viewBox="0 0 32 32" fill="none" xmlns="http://www.w3.org/2000/svg">
<g clip-path="url(#clip0_89_9261)">
<path d="M31.609 29.7249L23.6504 21.7663C25.8192 19.1137 26.8855 15.7291 26.6288 12.3123C26.3721 8.89564 24.812 5.7083 22.2712 3.40962C19.7303 1.11094 16.4032 -0.123214 12.9779 -0.0375713C9.55263 0.0480712 6.29131 1.44696 3.86853 3.86975C1.44574 6.29253 0.0468505 9.55385 -0.038792 12.9791C-0.124434 16.4044 1.10972 19.7315 3.4084 22.2724C5.70708 24.8132 8.89442 26.3733 12.3111 26.6301C15.7278 26.8868 19.1125 25.8204 21.765 23.6516L29.7237 31.6103C29.9752 31.8531 30.312 31.9875 30.6616 31.9845C31.0112 31.9815 31.3456 31.8412 31.5928 31.594C31.84 31.3468 31.9802 31.0124 31.9833 30.6628C31.9863 30.3132 31.8519 29.9764 31.609 29.7249ZM13.333 24.0009C11.2234 24.0009 9.16108 23.3753 7.40696 22.2033C5.65284 21.0312 4.28566 19.3653 3.47833 17.4162C2.67099 15.4671 2.45976 13.3224 2.87133 11.2533C3.28291 9.18417 4.29881 7.28355 5.79057 5.79179C7.28233 4.30003 9.18295 3.28413 11.2521 2.87255C13.3212 2.46098 15.4659 2.67221 17.415 3.47955C19.3641 4.28688 21.03 5.65406 22.2021 7.40818C23.3741 9.1623 23.9997 11.2246 23.9997 13.3343C23.9965 16.1623 22.8717 18.8735 20.872 20.8732C18.8723 22.8729 16.161 23.9978 13.333 24.0009Z" fill="#EDF8FD"/>
</g>
<defs>
<clipPath id="clip0_89_9261">
<rect width="32" height="32" fill="white"/>
</clipPath>
</defs>
</svg>
