<svg width="32" height="32" viewBox="0 0 32 32" fill="none" xmlns="http://www.w3.org/2000/svg">
<g clip-path="url(#clip0_89_9300)">
<path d="M17.1148 0.0370714C14.8289 -0.122874 12.5353 0.210065 10.3892 1.01336C8.24311 1.81666 6.29459 3.07156 4.67552 4.69317C3.05644 6.31478 1.80457 8.26525 1.00463 10.4126C0.204681 12.5599 -0.124679 14.8541 0.0388335 17.1397C0.626834 25.6104 8.1095 31.9997 17.4442 31.9997H25.3335C27.101 31.9976 28.7954 31.2946 30.0452 30.0448C31.295 28.795 31.9981 27.1005 32.0002 25.3331V16.4531C32.0499 12.343 30.543 8.36626 27.7819 5.3213C25.0209 2.27634 21.2101 0.388588 17.1148 0.0370714V0.0370714ZM24.9335 12.9491L15.8762 21.8917C15.3764 22.3896 14.6996 22.6692 13.9942 22.6692C13.2887 22.6692 12.612 22.3896 12.1122 21.8917L7.06683 16.9531C6.81399 16.7055 6.66984 16.3677 6.66609 16.0139C6.66234 15.6601 6.7993 15.3192 7.04683 15.0664C7.29437 14.8136 7.63221 14.6694 7.98602 14.6657C8.33984 14.6619 8.68066 14.7989 8.9335 15.0464L13.9908 19.9891L23.0655 11.0557C23.3214 10.8306 23.6538 10.712 23.9945 10.7243C24.3351 10.7366 24.6581 10.8789 24.8971 11.122C25.136 11.3651 25.2728 11.6904 25.2794 12.0312C25.2859 12.372 25.1617 12.7024 24.9322 12.9544L24.9335 12.9491Z" fill="#1CB02A"/>
</g>
<defs>
<clipPath id="clip0_89_9300">
<rect width="32" height="32" fill="white"/>
</clipPath>
</defs>
</svg>
