<svg width="32" height="32" viewBox="0 0 32 32" fill="none" xmlns="http://www.w3.org/2000/svg">
<path d="M1.33333 7.99991H30.6667C31.0203 7.99991 31.3594 7.85944 31.6095 7.60939C31.8595 7.35934 32 7.0202 32 6.66658C32 6.31296 31.8595 5.97382 31.6095 5.72378C31.3594 5.47373 31.0203 5.33325 30.6667 5.33325H1.33333C0.979711 5.33325 0.640573 5.47373 0.390524 5.72378C0.140476 5.97382 0 6.31296 0 6.66658C0 7.0202 0.140476 7.35934 0.390524 7.60939C0.640573 7.85944 0.979711 7.99991 1.33333 7.99991V7.99991Z" fill="#0E506C"/>
<path d="M1.33333 14.6667H20C20.3536 14.6667 20.6928 14.5262 20.9428 14.2761C21.1929 14.0261 21.3333 13.687 21.3333 13.3333C21.3333 12.9797 21.1929 12.6406 20.9428 12.3905C20.6928 12.1405 20.3536 12 20 12H1.33333C0.979711 12 0.640573 12.1405 0.390524 12.3905C0.140476 12.6406 0 12.9797 0 13.3333C0 13.687 0.140476 14.0261 0.390524 14.2761C0.640573 14.5262 0.979711 14.6667 1.33333 14.6667V14.6667Z" fill="#0E506C"/>
<path d="M20 25.3333H1.33333C0.979711 25.3333 0.640573 25.4737 0.390524 25.7238C0.140476 25.9738 0 26.313 0 26.6666C0 27.0202 0.140476 27.3594 0.390524 27.6094C0.640573 27.8595 0.979711 27.9999 1.33333 27.9999H20C20.3536 27.9999 20.6928 27.8595 20.9428 27.6094C21.1929 27.3594 21.3333 27.0202 21.3333 26.6666C21.3333 26.313 21.1929 25.9738 20.9428 25.7238C20.6928 25.4737 20.3536 25.3333 20 25.3333Z" fill="#0E506C"/>
<path d="M30.6667 18.6667H1.33333C0.979711 18.6667 0.640573 18.8072 0.390524 19.0573C0.140476 19.3073 0 19.6465 0 20.0001C0 20.3537 0.140476 20.6929 0.390524 20.9429C0.640573 21.193 0.979711 21.3334 1.33333 21.3334H30.6667C31.0203 21.3334 31.3594 21.193 31.6095 20.9429C31.8595 20.6929 32 20.3537 32 20.0001C32 19.6465 31.8595 19.3073 31.6095 19.0573C31.3594 18.8072 31.0203 18.6667 30.6667 18.6667Z" fill="#0E506C"/>
</svg>
