<svg width="32" height="32" viewBox="0 0 32 32" fill="none" xmlns="http://www.w3.org/2000/svg">
<g clip-path="url(#clip0_89_9196)">
<path d="M31.609 21.7654C31.3589 21.5154 31.0198 21.375 30.6663 21.375C30.3127 21.375 29.9737 21.5154 29.7236 21.7654L22.221 29.2694L18.637 25.732C18.3894 25.4783 18.0512 25.3333 17.6968 25.329C17.3423 25.3246 17.0007 25.4612 16.747 25.7087C16.4932 25.9562 16.3482 26.2944 16.3439 26.6489C16.3395 27.0033 16.4761 27.345 16.7236 27.5987L20.3823 31.1987C20.6118 31.4461 20.889 31.6446 21.1972 31.7821C21.5054 31.9195 21.8382 31.9932 22.1756 31.9987H22.2196C22.5504 31.9998 22.878 31.9352 23.1836 31.8086C23.4891 31.682 23.7665 31.496 23.9996 31.2614L31.609 23.6507C31.8589 23.4007 31.9993 23.0616 31.9993 22.708C31.9993 22.3545 31.8589 22.0154 31.609 21.7654V21.7654Z" fill="#374957"/>
<path d="M14.7867 29.2774C12.2121 29.0421 9.76137 28.0634 7.73297 26.4604C5.70456 24.8575 4.18593 22.6993 3.36196 20.2488C2.538 17.7983 2.44423 15.1611 3.09207 12.6582C3.73992 10.1554 5.10144 7.89485 7.01088 6.15186C8.92031 4.40886 11.2953 3.25858 13.8467 2.84106C16.3981 2.42353 19.0159 2.75677 21.3813 3.8002C23.7467 4.84364 25.7578 6.55225 27.1696 8.71804C28.5815 10.8838 29.3332 13.4134 29.3333 15.9987C29.3333 16.408 29.3133 16.8134 29.2787 17.2134C29.2623 17.3882 29.2807 17.5645 29.3327 17.7322C29.3847 17.8999 29.4693 18.0557 29.5817 18.1906C29.6941 18.3255 29.832 18.4369 29.9875 18.5184C30.143 18.5999 30.3131 18.6498 30.488 18.6654C30.6628 18.683 30.8393 18.6655 31.0072 18.6139C31.1751 18.5623 31.331 18.4777 31.4658 18.3651C31.6005 18.2524 31.7114 18.114 31.7919 17.9579C31.8725 17.8018 31.921 17.6312 31.9347 17.456C31.9773 16.972 32 16.488 32 15.9987C31.9998 12.8962 31.0977 9.86064 29.4033 7.26163C27.709 4.66263 25.2956 2.61229 22.4569 1.36025C19.6182 0.108204 16.4768 -0.291529 13.415 0.209716C10.3533 0.71096 7.50328 2.09156 5.21206 4.18342C2.92083 6.27528 1.2872 8.98817 0.510068 11.9918C-0.267063 14.9954 -0.15417 18.1602 0.835 21.1008C1.82417 24.0414 3.64694 26.631 6.0814 28.5543C8.51586 30.4775 11.457 31.6516 14.5467 31.9334H14.668C15.0216 31.9491 15.367 31.8237 15.6282 31.5848C15.8894 31.3459 16.0449 31.013 16.0607 30.6594C16.0764 30.3058 15.951 29.9604 15.7121 29.6992C15.4732 29.438 15.1403 29.2825 14.7867 29.2667V29.2774Z" fill="#374957"/>
<path d="M14.6668 9.33333V15.448L11.0574 19.0573C10.9301 19.1803 10.8285 19.3274 10.7586 19.4901C10.6888 19.6528 10.652 19.8277 10.6504 20.0048C10.6489 20.1818 10.6826 20.3574 10.7497 20.5213C10.8167 20.6851 10.9157 20.834 11.0409 20.9592C11.1661 21.0844 11.315 21.1834 11.4788 21.2504C11.6427 21.3175 11.8183 21.3512 11.9953 21.3497C12.1723 21.3481 12.3473 21.3113 12.51 21.2415C12.6726 21.1716 12.8198 21.07 12.9428 20.9426L16.9428 16.9427C17.1928 16.6927 17.3333 16.3536 17.3334 16V9.33333C17.3334 8.97971 17.1929 8.64057 16.9429 8.39052C16.6929 8.14048 16.3537 8 16.0001 8C15.6465 8 15.3073 8.14048 15.0573 8.39052C14.8072 8.64057 14.6668 8.97971 14.6668 9.33333V9.33333Z" fill="#374957"/>
</g>
<defs>
<clipPath id="clip0_89_9196">
<rect width="32" height="32" fill="white"/>
</clipPath>
</defs>
</svg>
