<svg width="32" height="32" viewBox="0 0 32 32" fill="none" xmlns="http://www.w3.org/2000/svg">
<g clip-path="url(#clip0_89_9195)">
<path d="M30.666 24.0008H26.666V20.0008C26.666 19.6472 26.5255 19.3081 26.2755 19.058C26.0254 18.808 25.6863 18.6675 25.3327 18.6675C24.9791 18.6675 24.6399 18.808 24.3899 19.058C24.1398 19.3081 23.9993 19.6472 23.9993 20.0008V24.0008H19.9993C19.6457 24.0008 19.3066 24.1413 19.0565 24.3913C18.8065 24.6414 18.666 24.9805 18.666 25.3341C18.666 25.6878 18.8065 26.0269 19.0565 26.277C19.3066 26.527 19.6457 26.6675 19.9993 26.6675H23.9993V30.6675C23.9993 31.0211 24.1398 31.3602 24.3899 31.6103C24.6399 31.8603 24.9791 32.0008 25.3327 32.0008C25.6863 32.0008 26.0254 31.8603 26.2755 31.6103C26.5255 31.3602 26.666 31.0211 26.666 30.6675V26.6675H30.666C31.0196 26.6675 31.3588 26.527 31.6088 26.277C31.8589 26.0269 31.9993 25.6878 31.9993 25.3341C31.9993 24.9805 31.8589 24.6414 31.6088 24.3913C31.3588 24.1413 31.0196 24.0008 30.666 24.0008Z" fill="#374957"/>
<path d="M14.6668 9.33333V15.448L11.0574 19.0573C10.9301 19.1803 10.8285 19.3274 10.7586 19.4901C10.6888 19.6528 10.652 19.8277 10.6504 20.0048C10.6489 20.1818 10.6826 20.3574 10.7497 20.5213C10.8167 20.6851 10.9157 20.834 11.0409 20.9592C11.1661 21.0844 11.315 21.1834 11.4788 21.2504C11.6427 21.3175 11.8183 21.3512 11.9953 21.3497C12.1723 21.3481 12.3473 21.3113 12.51 21.2415C12.6726 21.1716 12.8198 21.07 12.9428 20.9426L16.9428 16.9427C17.1928 16.6927 17.3333 16.3536 17.3334 16V9.33333C17.3334 8.97971 17.1929 8.64057 16.9429 8.39052C16.6929 8.14048 16.3537 8 16.0001 8C15.6465 8 15.3073 8.14048 15.0573 8.39052C14.8072 8.64057 14.6668 8.97971 14.6668 9.33333V9.33333Z" fill="#374957"/>
<path d="M19.6363 28.8326C16.8009 29.6317 13.7805 29.4678 11.0482 28.3667C8.31591 27.2655 6.02599 25.2892 4.53709 22.7473C3.04818 20.2054 2.44439 17.2415 2.82026 14.3197C3.19613 11.398 4.53045 8.68337 6.61424 6.60109C8.69802 4.51882 11.4136 3.18647 14.3356 2.81271C17.2577 2.43896 20.2212 3.0449 22.762 4.53565C25.3028 6.02639 27.2774 8.31775 28.3766 11.0508C29.4758 13.7839 29.6374 16.8044 28.8363 19.6392C28.782 19.8097 28.7627 19.9893 28.7793 20.1673C28.7959 20.3454 28.8482 20.5183 28.933 20.6757C29.0178 20.8332 29.1334 20.972 29.273 21.0838C29.4125 21.1957 29.5732 21.2783 29.7453 21.3268C29.9175 21.3753 30.0976 21.3887 30.275 21.3661C30.4524 21.3435 30.6235 21.2855 30.778 21.1955C30.9326 21.1055 31.0674 20.9853 31.1745 20.8421C31.2816 20.6989 31.3589 20.5356 31.4016 20.3619C32.3635 16.9576 32.1689 13.3304 30.8485 10.0485C29.528 6.76662 27.1562 4.01545 24.1046 2.226C21.053 0.436554 17.494 -0.290088 13.9851 0.159911C10.4763 0.609911 7.21583 2.21113 4.71453 4.71273C2.21324 7.21432 0.612415 10.475 0.162839 13.9839C-0.286736 17.4928 0.440336 21.0517 2.23016 24.1031C4.01997 27.1544 6.77143 29.5259 10.0535 30.846C13.3355 32.1661 16.9628 32.3602 20.3669 31.3979C20.5391 31.3536 20.7007 31.2754 20.8422 31.1677C20.9837 31.0601 21.1022 30.9253 21.1908 30.7711C21.2795 30.617 21.3363 30.4467 21.3582 30.2703C21.38 30.0939 21.3663 29.9148 21.318 29.7438C21.2696 29.5727 21.1875 29.413 21.0765 29.2741C20.9655 29.1353 20.8279 29.02 20.6717 28.9351C20.5155 28.8502 20.3439 28.7974 20.167 28.7798C19.9901 28.7622 19.8115 28.7801 19.6416 28.8326H19.6363Z" fill="#374957"/>
</g>
<defs>
<clipPath id="clip0_89_9195">
<rect width="32" height="32" fill="white"/>
</clipPath>
</defs>
</svg>
