<svg width="32" height="32" viewBox="0 0 32 32" fill="none" xmlns="http://www.w3.org/2000/svg">
<g clip-path="url(#clip0_89_9275)">
<path d="M31.0281 12.5585C28.9601 9.19046 24.2561 3.53979 16.0001 3.53979C7.74407 3.53979 3.04007 9.19046 0.972068 12.5585C0.332772 13.5925 -0.00585937 14.7841 -0.00585938 15.9998C-0.00585938 17.2155 0.332772 18.4071 0.972068 19.4411C3.04007 22.8091 7.74407 28.4598 16.0001 28.4598C24.2561 28.4598 28.9601 22.8091 31.0281 19.4411C31.6674 18.4071 32.006 17.2155 32.006 15.9998C32.006 14.7841 31.6674 13.5925 31.0281 12.5585V12.5585ZM28.7547 18.0451C26.9787 20.9331 22.9587 25.7931 16.0001 25.7931C9.0414 25.7931 5.0214 20.9331 3.2454 18.0451C2.86558 17.4305 2.6644 16.7223 2.6644 15.9998C2.6644 15.2773 2.86558 14.5691 3.2454 13.9545C5.0214 11.0665 9.0414 6.20646 16.0001 6.20646C22.9587 6.20646 26.9787 11.0611 28.7547 13.9545C29.1346 14.5691 29.3357 15.2773 29.3357 15.9998C29.3357 16.7223 29.1346 17.4305 28.7547 18.0451V18.0451Z" fill="#1578A2"/>
<path d="M16.0007 9.33301C14.6821 9.33301 13.3932 9.724 12.2969 10.4565C11.2005 11.1891 10.346 12.2303 9.84146 13.4485C9.33687 14.6666 9.20485 16.0071 9.46209 17.3003C9.71932 18.5935 10.3543 19.7814 11.2866 20.7137C12.219 21.6461 13.4068 22.281 14.7001 22.5382C15.9933 22.7955 17.3337 22.6635 18.5519 22.1589C19.7701 21.6543 20.8112 20.7998 21.5438 19.7035C22.2763 18.6071 22.6673 17.3182 22.6673 15.9997C22.6652 14.2322 21.9621 12.5378 20.7124 11.288C19.4626 10.0382 17.7681 9.33512 16.0007 9.33301V9.33301ZM16.0007 19.9997C15.2095 19.9997 14.4362 19.7651 13.7784 19.3256C13.1206 18.886 12.6079 18.2613 12.3051 17.5304C12.0024 16.7995 11.9232 15.9952 12.0775 15.2193C12.2319 14.4434 12.6128 13.7307 13.1722 13.1712C13.7316 12.6118 14.4444 12.2309 15.2203 12.0765C15.9962 11.9222 16.8005 12.0014 17.5314 12.3042C18.2623 12.6069 18.887 13.1196 19.3265 13.7774C19.7661 14.4352 20.0007 15.2085 20.0007 15.9997C20.0007 17.0605 19.5792 18.078 18.8291 18.8281C18.0789 19.5782 17.0615 19.9997 16.0007 19.9997Z" fill="#1578A2"/>
</g>
<defs>
<clipPath id="clip0_89_9275">
<rect width="32" height="32" fill="white"/>
</clipPath>
</defs>
</svg>
